<?xml version="1.0" encoding="UTF-8" standalone="no"?>
<!DOCTYPE svg PUBLIC "-//W3C//DTD SVG 1.1//EN" "http://www.w3.org/Graphics/SVG/1.1/DTD/svg11.dtd">
<svg width="100%" height="100%" viewBox="0 0 512 512" version="1.1" xmlns="http://www.w3.org/2000/svg" xmlns:xlink="http://www.w3.org/1999/xlink" xml:space="preserve" xmlns:serif="http://www.serif.com/" style="fill-rule:evenodd;clip-rule:evenodd;stroke-linejoin:round;stroke-miterlimit:2;">
    <g id="apple" transform="matrix(4.24037,2.46513e-16,-2.506e-16,4.3433,-2678.16,-1394.42)">
        <g transform="matrix(4.66012,0,0,4.66012,-1170.81,-1706.55)">
            <path d="M399.725,435.743C402.13,435.743 403.882,434.878 405.987,435.964C410.174,438.123 413.209,440.885 412.509,447.621C411.927,453.227 407.9,459.824 403.534,459.971C401.903,460.026 401.159,459.508 399.98,459.545C398.764,459.582 397.959,460.127 396.044,460.096C392.926,460.046 387.684,454.445 386.973,447.621C386.189,440.107 389.41,438.004 393.571,435.937C395.586,434.936 397.247,435.743 399.725,435.743Z" style="fill:rgb(218, 6, 0);"/>
        </g>
        <g transform="matrix(2.50073,-2.50073,2.50073,2.50073,-1841.91,805.43)">
            <path d="M596.326,409.593C596.405,409.282 596.721,409.093 597.032,409.172C597.343,409.251 597.532,409.568 597.453,409.879C597.453,409.879 597.106,411.47 598.911,413.319C600.796,415.249 602.988,415.223 602.988,415.223C603.309,415.217 603.575,415.472 603.581,415.793C603.588,416.114 603.333,416.379 603.012,416.386C603.012,416.386 600.351,416.458 598.079,414.131C595.728,411.723 596.326,409.593 596.326,409.593Z" style="fill:rgb(184,3,0);"/>
        </g>
        <g transform="matrix(0.191858,-1.08893e-17,1.10698e-17,0.187311,638.382,324.303)">
            <circle cx="236.892" cy="45.028" r="13.408" style="fill:rgb(184,3,0);"/>
        </g>
        <g transform="matrix(0.191858,-1.08893e-17,1.10698e-17,0.187311,651,324.303)">
            <circle cx="236.892" cy="45.028" r="13.408" style="fill:rgb(184,3,0);"/>
        </g>
    </g>
</svg>
