<?xml version="1.0" encoding="UTF-8" standalone="no"?>
<!DOCTYPE svg PUBLIC "-//W3C//DTD SVG 1.1//EN" "http://www.w3.org/Graphics/SVG/1.1/DTD/svg11.dtd">
<svg width="100%" height="100%" viewBox="0 0 512 512" version="1.1" xmlns="http://www.w3.org/2000/svg" xmlns:xlink="http://www.w3.org/1999/xlink" xml:space="preserve" xmlns:serif="http://www.serif.com/" style="fill-rule:evenodd;clip-rule:evenodd;stroke-linejoin:round;stroke-miterlimit:2;">
    <g id="shape" transform="matrix(4.22695,0,0,4.22695,-2669.69,-1347.76)">
        <g transform="matrix(4.66012,0,0,4.66012,-1170.81,-1706.55)">
            <circle cx="399.766" cy="447.621" r="12.996" style="fill:rgb(101, 119, 255);"/>
        </g>
        <g transform="matrix(0.594331,-0.364921,0.364921,0.594331,32.9573,495.162)">
            <path d="M917.565,318.723C919.184,314.763 923.037,312.175 927.316,312.175C931.594,312.175 935.448,314.763 937.067,318.723L940.931,328.174C941.059,328.487 941.271,328.757 941.544,328.956C941.817,329.154 942.14,329.273 942.477,329.298L952.66,330.052C956.926,330.368 960.578,333.233 961.9,337.302C963.222,341.371 961.952,345.836 958.686,348.599L950.891,355.195C950.634,355.413 950.442,355.698 950.338,356.02C950.233,356.341 950.221,356.684 950.301,357.012L952.73,366.93C953.748,371.085 952.152,375.444 948.69,377.959C945.229,380.473 940.59,380.645 936.953,378.393L928.271,373.018C927.984,372.84 927.653,372.746 927.316,372.746C926.978,372.746 926.647,372.84 926.36,373.018L917.679,378.393C914.041,380.645 909.403,380.473 905.942,377.959C902.48,375.444 900.884,371.085 901.902,366.93L904.331,357.012C904.411,356.684 904.399,356.341 904.294,356.02C904.19,355.698 903.998,355.413 903.74,355.195L895.946,348.599C892.68,345.836 891.409,341.371 892.731,337.302C894.054,333.233 897.705,330.368 901.972,330.052L912.155,329.298C912.492,329.273 912.815,329.154 913.088,328.956C913.361,328.757 913.573,328.487 913.701,328.174L917.565,318.723Z" style="fill:rgb(31,49,186);"/>
        </g>
    </g>
</svg>
