<?xml version="1.0" encoding="UTF-8" standalone="no"?>
<!DOCTYPE svg PUBLIC "-//W3C//DTD SVG 1.1//EN" "http://www.w3.org/Graphics/SVG/1.1/DTD/svg11.dtd">
<svg width="100%" height="100%" viewBox="0 0 512 512" version="1.1" xmlns="http://www.w3.org/2000/svg" xmlns:xlink="http://www.w3.org/1999/xlink" xml:space="preserve" xmlns:serif="http://www.serif.com/" style="fill-rule:evenodd;clip-rule:evenodd;stroke-linejoin:round;stroke-miterlimit:2;">
    <g transform="matrix(13.7398,-13.7398,13.7398,13.7398,-11386.4,-399.902)">
        <g id="dragonfruit">
            <path d="M399.472,433.204C402.653,433.177 402.193,435.374 402.879,435.487C409.051,436.495 412.762,441.166 412.762,447.621C412.762,454.794 406.939,460.617 399.766,460.617C392.593,460.617 386.77,454.794 386.77,447.621C386.77,441.41 390.231,436.851 396.059,435.568C396.961,435.369 396.179,433.233 399.472,433.204Z" style="fill:rgb(247,37,94);"/>
            <clipPath id="_clip1">
                <path d="M399.472,433.204C402.653,433.177 402.193,435.374 402.879,435.487C409.051,436.495 412.762,441.166 412.762,447.621C412.762,454.794 406.939,460.617 399.766,460.617C392.593,460.617 386.77,454.794 386.77,447.621C386.77,441.41 390.231,436.851 396.059,435.568C396.961,435.369 396.179,433.233 399.472,433.204Z"/>
            </clipPath>
            <g clip-path="url(#_clip1)">
                <g transform="matrix(0.863306,-7.82836e-17,8.15134e-17,0.863306,-125.443,107.99)">
                    <path d="M591.883,384.033C591.7,383.902 591.657,383.647 591.789,383.463C591.92,383.28 592.175,383.238 592.358,383.369C592.358,383.369 597.704,387.199 597.704,387.199L602.105,384.047C602.812,383.54 603.764,383.54 604.472,384.047C604.472,384.047 608.872,387.199 608.872,387.199L613.272,384.047C613.98,383.54 614.932,383.54 615.639,384.047C615.639,384.047 620.04,387.199 620.04,387.199L625.386,383.369C625.569,383.238 625.824,383.28 625.955,383.463C626.086,383.647 626.044,383.902 625.861,384.033L620.277,388.033C620.135,388.135 619.944,388.135 619.802,388.033L615.164,384.711C614.74,384.407 614.171,384.407 613.748,384.711L609.11,388.033C608.968,388.135 608.776,388.135 608.634,388.033L603.996,384.711C603.573,384.407 603.003,384.407 602.58,384.711L597.942,388.033C597.8,388.135 597.609,388.135 597.467,388.033L591.883,384.033Z" style="fill:rgb(187,10,75);"/>
                </g>
                <g transform="matrix(0.863306,-7.82836e-17,8.15134e-17,0.863306,-125.443,116.478)">
                    <path d="M591.883,384.033C591.7,383.902 591.657,383.647 591.789,383.463C591.92,383.28 592.175,383.238 592.358,383.369C592.358,383.369 597.704,387.199 597.704,387.199L602.105,384.047C602.812,383.54 603.764,383.54 604.472,384.047C604.472,384.047 608.872,387.199 608.872,387.199L613.272,384.047C613.98,383.54 614.932,383.54 615.639,384.047C615.639,384.047 620.04,387.199 620.04,387.199L625.386,383.369C625.569,383.238 625.824,383.28 625.955,383.463C626.086,383.647 626.044,383.902 625.861,384.033L620.277,388.033C620.135,388.135 619.944,388.135 619.802,388.033L615.164,384.711C614.74,384.407 614.171,384.407 613.748,384.711L609.11,388.033C608.968,388.135 608.776,388.135 608.634,388.033L603.996,384.711C603.573,384.407 603.003,384.407 602.58,384.711L597.942,388.033C597.8,388.135 597.609,388.135 597.467,388.033L591.883,384.033Z" style="fill:rgb(187,10,75);"/>
                </g>
                <g transform="matrix(0.863306,-7.82836e-17,8.15134e-17,0.863306,-125.443,123.863)">
                    <path d="M591.883,384.033C591.7,383.902 591.657,383.647 591.789,383.463C591.92,383.28 592.175,383.238 592.358,383.369C592.358,383.369 597.704,387.199 597.704,387.199L602.105,384.047C602.812,383.54 603.764,383.54 604.472,384.047C604.472,384.047 608.872,387.199 608.872,387.199L613.272,384.047C613.98,383.54 614.932,383.54 615.639,384.047C615.639,384.047 620.04,387.199 620.04,387.199L625.386,383.369C625.569,383.238 625.824,383.28 625.955,383.463C626.086,383.647 626.044,383.902 625.861,384.033L620.277,388.033C620.135,388.135 619.944,388.135 619.802,388.033L615.164,384.711C614.74,384.407 614.171,384.407 613.748,384.711L609.11,388.033C608.968,388.135 608.776,388.135 608.634,388.033L603.996,384.711C603.573,384.407 603.003,384.407 602.58,384.711L597.942,388.033C597.8,388.135 597.609,388.135 597.467,388.033L591.883,384.033Z" style="fill:rgb(187,10,75);"/>
                </g>
            </g>
        </g>
    </g>
</svg>
