<?xml version="1.0" encoding="UTF-8" standalone="no"?>
<!DOCTYPE svg PUBLIC "-//W3C//DTD SVG 1.1//EN" "http://www.w3.org/Graphics/SVG/1.1/DTD/svg11.dtd">
<svg width="100%" height="100%" viewBox="0 0 512 512" version="1.1" xmlns="http://www.w3.org/2000/svg" xmlns:xlink="http://www.w3.org/1999/xlink" xml:space="preserve" xmlns:serif="http://www.serif.com/" style="fill-rule:evenodd;clip-rule:evenodd;stroke-linejoin:round;stroke-miterlimit:2;">
    <g id="grapefruit" transform="matrix(3.78948,0,0,3.78948,-714.106,-1746.24)">
        <g transform="matrix(5.19811,4.71359e-16,-4.90806e-16,5.19811,-1822.03,-1798.41)">
            <g id="shape">
                <circle cx="399.766" cy="447.621" r="12.996" style="fill:rgb(178,229,112);"/>
            </g>
        </g>
        <g transform="matrix(1.28984,2.46519e-32,0,1.28984,-914.446,28.4962)">
            <circle cx="897.387" cy="427.009" r="2.166" style="fill:rgb(131,183,62);"/>
        </g>
        <g transform="matrix(1.28984,2.46519e-32,0,1.28984,-898.841,31.349)">
            <circle cx="897.387" cy="427.009" r="2.166" style="fill:rgb(131,183,62);"/>
        </g>
        <g transform="matrix(1.28984,2.46519e-32,0,1.28984,-886.716,24.8647)">
            <circle cx="897.387" cy="427.009" r="2.166" style="fill:rgb(131,183,62);"/>
        </g>
        <g transform="matrix(1.28984,2.46519e-32,0,1.28984,-869.892,23.0712)">
            <circle cx="897.387" cy="427.009" r="2.166" style="fill:rgb(131,183,62);"/>
        </g>
        <g transform="matrix(1.28984,2.46519e-32,0,1.28984,-877.501,14.703)">
            <circle cx="897.387" cy="427.009" r="2.166" style="fill:rgb(131,183,62);"/>
        </g>
        <g transform="matrix(1.28984,2.46519e-32,0,1.28984,-894.382,14.89)">
            <circle cx="897.387" cy="427.009" r="2.166" style="fill:rgb(131,183,62);"/>
        </g>
        <g transform="matrix(1.28984,2.46519e-32,0,1.28984,-888.486,5.71696)">
            <circle cx="897.387" cy="427.009" r="2.166" style="fill:rgb(131,183,62);"/>
        </g>
        <g transform="matrix(1.28984,2.46519e-32,0,1.28984,-867.665,6.48495)">
            <circle cx="897.387" cy="427.009" r="2.166" style="fill:rgb(131,183,62);"/>
        </g>
        <g transform="matrix(1.28984,2.46519e-32,0,1.28984,-862.293,-2.60835)">
            <circle cx="897.387" cy="427.009" r="2.166" style="fill:rgb(131,183,62);"/>
        </g>
        <g transform="matrix(1.28984,2.46519e-32,0,1.28984,-854.376,5.26977)">
            <circle cx="897.387" cy="427.009" r="2.166" style="fill:rgb(131,183,62);"/>
        </g>
        <g transform="matrix(1.28984,2.46519e-32,0,1.28984,-877.995,-1.17354)">
            <circle cx="897.387" cy="427.009" r="2.166" style="fill:rgb(131,183,62);"/>
        </g>
        <g transform="matrix(1.28984,2.46519e-32,0,1.28984,-869.026,-14.2478)">
            <circle cx="897.387" cy="427.009" r="2.166" style="fill:rgb(131,183,62);"/>
        </g>
        <g transform="matrix(1.28984,2.46519e-32,0,1.28984,-853.335,-12.8575)">
            <circle cx="897.387" cy="427.009" r="2.166" style="fill:rgb(131,183,62);"/>
        </g>
        <g transform="matrix(1.28984,2.46519e-32,0,1.28984,-955.356,-14.1727)">
            <circle cx="897.387" cy="427.009" r="2.166" style="fill:rgb(131,183,62);"/>
        </g>
        <g transform="matrix(1.28984,2.46519e-32,0,1.28984,-941.346,-27.5644)">
            <circle cx="897.387" cy="427.009" r="2.166" style="fill:rgb(131,183,62);"/>
        </g>
        <g transform="matrix(1.28984,2.46519e-32,0,1.28984,-949.983,-32.8621)">
            <circle cx="897.387" cy="427.009" r="2.166" style="fill:rgb(131,183,62);"/>
        </g>
        <g transform="matrix(1.28984,2.46519e-32,0,1.28984,-852.579,-25.3033)">
            <circle cx="897.387" cy="427.009" r="2.166" style="fill:rgb(131,183,62);"/>
        </g>
        <g transform="matrix(1.28984,2.46519e-32,0,1.28984,-855.667,-37.7874)">
            <circle cx="897.387" cy="427.009" r="2.166" style="fill:rgb(131,183,62);"/>
        </g>
        <g transform="matrix(1.28984,2.46519e-32,0,1.28984,-853.482,-51.0426)">
            <circle cx="897.387" cy="427.009" r="2.166" style="fill:rgb(131,183,62);"/>
        </g>
    </g>
</svg>
