<?xml version="1.0" encoding="UTF-8" standalone="no"?>
<!DOCTYPE svg PUBLIC "-//W3C//DTD SVG 1.1//EN" "http://www.w3.org/Graphics/SVG/1.1/DTD/svg11.dtd">
<svg width="100%" height="100%" viewBox="0 0 512 512" version="1.1" xmlns="http://www.w3.org/2000/svg" xmlns:xlink="http://www.w3.org/1999/xlink" xml:space="preserve" xmlns:serif="http://www.serif.com/" style="fill-rule:evenodd;clip-rule:evenodd;stroke-linejoin:round;stroke-miterlimit:2;">
    <g id="shape" transform="matrix(4.22112,0,0,4.22112,-2662.48,-1344.32)">
        <g transform="matrix(3.2952,3.2952,-3.2952,3.2952,849.102,-2413.2)">
            <path d="M399.766,432.96C400.73,432.96 401.669,434.73 402.573,434.929C408.399,436.214 412.762,441.412 412.762,447.621C412.762,453.592 408.727,458.627 403.238,460.147C402.132,460.453 400.968,461.833 399.766,461.833C398.712,461.833 397.687,460.491 396.706,460.254C391.008,458.876 386.77,453.74 386.77,447.621C386.77,441.503 391.006,436.367 396.702,434.989C397.685,434.751 398.711,432.96 399.766,432.96Z" style="fill:hsl(39.3, 100%, 59%);"/>
        </g>
        <g transform="matrix(5.53725,0,0,5.53725,-2999.63,-1996.29)">
            <circle cx="667.531" cy="436.739" r="0.814" style="fill:hsl(39.3, 100%, 45%);"/>
        </g>
        <g transform="matrix(5.53725,0,0,5.53725,-2994.09,-2023.98)">
            <circle cx="667.531" cy="436.739" r="0.814" style="fill:hsl(39.3, 100%, 45%);"/>
        </g>
        <g transform="matrix(5.53725,0,0,5.53725,-2960.87,-2023.98)">
            <circle cx="667.531" cy="436.739" r="0.814" style="fill:hsl(39.3, 100%, 45%);"/>
        </g>
        <g transform="matrix(5.53725,0,0,5.53725,-2977.48,-2007.36)">
            <circle cx="667.531" cy="436.739" r="0.814" style="fill:hsl(39.3, 100%, 45%);"/>
        </g>
    </g>
</svg>
