<?xml version="1.0" encoding="UTF-8" standalone="no"?>
<!DOCTYPE svg PUBLIC "-//W3C//DTD SVG 1.1//EN" "http://www.w3.org/Graphics/SVG/1.1/DTD/svg11.dtd">
<svg width="100%" height="100%" viewBox="0 0 512 512" version="1.1" xmlns="http://www.w3.org/2000/svg" xmlns:xlink="http://www.w3.org/1999/xlink" xml:space="preserve" xmlns:serif="http://www.serif.com/" style="fill-rule:evenodd;clip-rule:evenodd;stroke-linejoin:round;stroke-miterlimit:2;">
    <g transform="matrix(19.6981,1.7862e-15,-1.8599e-15,19.6981,-7618.64,-8561.28)">
        <g id="shape">
            <circle cx="399.766" cy="447.621" r="12.996" style="fill:rgb(255,194,52);"/>
            <clipPath id="_clip1">
                <circle cx="399.766" cy="447.621" r="12.996"/>
            </clipPath>
            <g clip-path="url(#_clip1)">
                <g transform="matrix(0.276706,7.42384e-17,2.47461e-17,0.276706,170.864,334.594)">
                    <path d="M779.09,359.31C778.751,358.971 778.751,358.42 779.09,358.08C779.43,357.741 779.981,357.741 780.32,358.08L875.388,453.148C875.727,453.487 875.727,454.038 875.388,454.378C875.049,454.717 874.498,454.717 874.158,454.378L779.09,359.31Z" style="fill:rgb(230,138,49);"/>
                </g>
                <g transform="matrix(0.276706,1.48477e-16,7.42384e-17,0.276706,175.625,329.834)">
                    <path d="M779.09,359.31C778.751,358.971 778.751,358.42 779.09,358.08C779.43,357.741 779.981,357.741 780.32,358.08L875.388,453.148C875.727,453.487 875.727,454.038 875.388,454.378C875.049,454.717 874.498,454.717 874.158,454.378L779.09,359.31Z" style="fill:rgb(230,138,49);"/>
                </g>
                <g transform="matrix(0.276706,1.97969e-16,9.89846e-17,0.276706,166.104,339.355)">
                    <path d="M779.09,359.31C778.751,358.971 778.751,358.42 779.09,358.08C779.43,357.741 779.981,357.741 780.32,358.08L875.388,453.148C875.727,453.487 875.727,454.038 875.388,454.378C875.049,454.717 874.498,454.717 874.158,454.378L779.09,359.31Z" style="fill:rgb(230,138,49);"/>
                </g>
                <g transform="matrix(-0.276706,1.24421e-16,2.7507e-17,0.276706,628.668,334.594)">
                    <path d="M780.32,358.08C779.981,357.741 779.43,357.741 779.09,358.08C778.751,358.42 778.751,358.971 779.09,359.31L874.158,454.378C874.498,454.717 875.049,454.717 875.388,454.378C875.727,454.038 875.727,453.487 875.388,453.148L780.32,358.08Z" style="fill:rgb(230,138,49);"/>
                </g>
                <g transform="matrix(-0.276706,1.9866e-16,-2.19853e-17,0.276706,623.908,329.834)">
                    <path d="M780.32,358.08C779.981,357.741 779.43,357.741 779.09,358.08C778.751,358.42 778.751,358.971 779.09,359.31L874.158,454.378C874.498,454.717 875.049,454.717 875.388,454.378C875.727,454.038 875.727,453.487 875.388,453.148L780.32,358.08Z" style="fill:rgb(230,138,49);"/>
                </g>
                <g transform="matrix(-0.276706,2.48152e-16,-4.67315e-17,0.276706,633.428,339.355)">
                    <path d="M780.32,358.08C779.981,357.741 779.43,357.741 779.09,358.08C778.751,358.42 778.751,358.971 779.09,359.31L874.158,454.378C874.498,454.717 875.049,454.717 875.388,454.378C875.727,454.038 875.727,453.487 875.388,453.148L780.32,358.08Z" style="fill:rgb(230,138,49);"/>
                </g>
            </g>
        </g>
    </g>
</svg>
