<?xml version="1.0" encoding="UTF-8" standalone="no"?>
<!DOCTYPE svg PUBLIC "-//W3C//DTD SVG 1.1//EN" "http://www.w3.org/Graphics/SVG/1.1/DTD/svg11.dtd">
<svg width="100%" height="100%" viewBox="0 0 512 512" version="1.1" xmlns="http://www.w3.org/2000/svg" xmlns:xlink="http://www.w3.org/1999/xlink" xml:space="preserve" xmlns:serif="http://www.serif.com/" style="fill-rule:evenodd;clip-rule:evenodd;stroke-linejoin:round;stroke-miterlimit:2;">
    <g transform="matrix(19.6981,1.7862e-15,-1.8599e-15,19.6981,-7618.64,-8561.28)">
        <circle cx="399.766" cy="447.621" r="12.996" style="fill:rgb(162,202,30);"/>
        <clipPath id="_clip1">
            <circle cx="399.766" cy="447.621" r="12.996"/>
        </clipPath>
        <g clip-path="url(#_clip1)">
            <g transform="matrix(0.198604,-1.80092e-17,-1.87522e-17,-0.198604,211.644,523.86)">
                <path d="M980.708,301.521C979.29,298.642 975.801,297.456 972.922,298.874C970.043,300.292 968.857,303.781 970.275,306.66L979.57,325.53C981.739,329.934 981.739,335.095 979.57,339.498L974.98,348.816C971.216,356.459 971.216,365.418 974.98,373.061L979.57,382.378C981.739,386.782 981.739,391.943 979.57,396.346L974.98,405.664C971.216,413.307 971.216,422.266 974.98,429.909L979.57,439.226C981.739,443.63 981.739,448.791 979.57,453.194L970.275,472.065C968.857,474.944 970.043,478.433 972.922,479.851C975.801,481.269 979.29,480.083 980.708,477.204L990.002,458.333C993.767,450.69 993.767,441.731 990.002,434.088L985.413,424.77C983.244,420.367 983.244,415.206 985.413,410.802L990.002,401.485C993.767,393.842 993.767,384.883 990.002,377.24L985.413,367.922C983.244,363.519 983.244,358.358 985.413,353.954L990.002,344.637C993.767,336.994 993.767,328.035 990.002,320.392L980.708,301.521Z" style="fill:rgb(67,96,0);"/>
            </g>
            <g transform="matrix(0.198604,-1.80092e-17,1.87522e-17,0.198604,204.775,374.231)">
                <path d="M970.275,306.66C968.857,303.781 970.043,300.292 972.922,298.874C975.801,297.456 979.29,298.642 980.708,301.521L990.002,320.392C993.767,328.035 993.767,336.994 990.002,344.637L985.413,353.954C983.244,358.358 983.244,363.519 985.413,367.922L990.002,377.24C993.767,384.883 993.767,393.842 990.002,401.485L985.413,410.802C983.244,415.206 983.244,420.367 985.413,424.77L990.002,434.088C993.767,441.731 993.767,450.69 990.002,458.333L980.708,477.204C979.29,480.083 975.801,481.269 972.922,479.851C970.043,478.433 968.857,474.944 970.275,472.065L979.57,453.194C981.739,448.791 981.739,443.63 979.57,439.226L974.98,429.909C971.216,422.266 971.216,413.307 974.98,405.664L979.57,396.346C981.739,391.943 981.739,386.782 979.57,382.378L974.98,373.061C971.216,365.418 971.216,356.459 974.98,348.816L979.57,339.498C981.739,335.095 981.739,329.934 979.57,325.53L970.275,306.66Z" style="fill:rgb(67,96,0);"/>
            </g>
            <g transform="matrix(0.198604,-1.80092e-17,1.87522e-17,0.198604,197.684,371.187)">
                <path d="M970.275,306.66C968.857,303.781 970.043,300.292 972.922,298.874C975.801,297.456 979.29,298.642 980.708,301.521L990.002,320.392C993.767,328.035 993.767,336.994 990.002,344.637L985.413,353.954C983.244,358.358 983.244,363.519 985.413,367.922L990.002,377.24C993.767,384.883 993.767,393.842 990.002,401.485L985.413,410.802C983.244,415.206 983.244,420.367 985.413,424.77L990.002,434.088C993.767,441.731 993.767,450.69 990.002,458.333L980.708,477.204C979.29,480.083 975.801,481.269 972.922,479.851C970.043,478.433 968.857,474.944 970.275,472.065L979.57,453.194C981.739,448.791 981.739,443.63 979.57,439.226L974.98,429.909C971.216,422.266 971.216,413.307 974.98,405.664L979.57,396.346C981.739,391.943 981.739,386.782 979.57,382.378L974.98,373.061C971.216,365.418 971.216,356.459 974.98,348.816L979.57,339.498C981.739,335.095 981.739,329.934 979.57,325.53L970.275,306.66Z" style="fill:rgb(67,96,0);"/>
            </g>
        </g>
    </g>
</svg>
