<?xml version="1.0" encoding="UTF-8" standalone="no"?>
<!DOCTYPE svg PUBLIC "-//W3C//DTD SVG 1.1//EN" "http://www.w3.org/Graphics/SVG/1.1/DTD/svg11.dtd">
<svg width="100%" height="100%" viewBox="0 0 512 512" version="1.1" xmlns="http://www.w3.org/2000/svg" xmlns:xlink="http://www.w3.org/1999/xlink" xml:space="preserve" xmlns:serif="http://www.serif.com/" style="fill-rule:evenodd;clip-rule:evenodd;stroke-linejoin:round;stroke-miterlimit:2;">
    <g id="shape" transform="matrix(3.03136,-3.03136,3.03136,3.03136,-2988.15,1208.32)">
        <g transform="matrix(4.66012,0,0,4.66012,-1170.81,-1706.55)">
            <path d="M399.679,435.864C400.485,435.864 402.188,434.571 404.683,435.588C409.424,437.521 412.762,442.187 412.762,447.621C412.762,454.794 405.172,460.617 399.766,460.617C394.361,460.617 386.77,454.794 386.77,447.621C386.77,442.356 389.92,437.847 394.412,435.777C397.213,434.486 398.794,435.864 399.679,435.864Z" style="fill:rgb(250, 148, 107);"/>
        </g>
        <g transform="matrix(1.80499,-0.101997,0.101997,1.80499,-677.747,-281.869)">
            <path d="M731.86,384.211C732.151,383.836 732.693,383.767 733.068,384.059C733.444,384.351 733.512,384.892 733.22,385.268C723.592,397.666 723.613,417.745 733.432,433.195C733.687,433.596 733.568,434.129 733.167,434.384C732.765,434.639 732.233,434.52 731.978,434.119C721.753,418.03 721.834,397.122 731.86,384.211Z" style="fill:rgb(213,59,34);"/>
        </g>
    </g>
</svg>
